<svg width="192" height="192" viewBox="0 0 192 192" fill="none" xmlns="http://www.w3.org/2000/svg">
<circle cx="96" cy="96" r="96" fill="white"/>
<path d="M104.625 135V67.7812H141.422C152.297 67.7812 157.734 73.2344 157.734 84.1406V93.7031C157.734 104.609 152.297 110.062 141.422 110.062H114.234V135H104.625ZM114.234 100.453H140.906C143.469 100.453 145.312 99.8906 146.438 98.7656C147.562 97.6406 148.125 95.7969 148.125 93.2344V84.6094C148.125 82.0469 147.562 80.2031 146.438 79.0781C145.312 77.9531 143.469 77.3906 140.906 77.3906H114.234V100.453Z" fill="black"/>
<path d="M53.2344 135H43.625V67.7812H53.2344L93.6406 119.906V67.7812H103.25V135H93.6406L53.2344 82.875V135Z" fill="black"/>
</svg>
